<svg width="43" height="39" viewBox="0 0 43 39" fill="none" xmlns="http://www.w3.org/2000/svg">
<path d="M41.167 8.57073C40.5256 7.0856 39.6007 5.73978 38.4442 4.60863C37.2869 3.47409 35.9223 2.5725 34.4247 1.95287C32.8718 1.30779 31.2063 0.977609 29.5247 0.981479C27.1656 0.981479 24.864 1.62747 22.8638 2.84769C22.3853 3.13958 21.9307 3.46019 21.5 3.80951C21.0693 3.46019 20.6147 3.13958 20.1362 2.84769C18.136 1.62747 15.8344 0.981479 13.4753 0.981479C11.7766 0.981479 10.1305 1.30687 8.57529 1.95287C7.07275 2.57494 5.71855 3.46976 4.55576 4.60863C3.39774 5.73851 2.47268 7.08464 1.83301 8.57073C1.16787 10.1163 0.828125 11.7576 0.828125 13.4468C0.828125 15.0403 1.15352 16.7007 1.79951 18.3899C2.34023 19.8015 3.11543 21.2657 4.10596 22.7444C5.67549 25.0843 7.83359 27.5247 10.5133 29.9987C14.9539 34.0995 19.3515 36.9324 19.5381 37.0472L20.6722 37.7745C21.1746 38.0951 21.8206 38.0951 22.323 37.7745L23.4571 37.0472C23.6438 36.9276 28.0365 34.0995 32.4819 29.9987C35.1616 27.5247 37.3197 25.0843 38.8893 22.7444C39.8798 21.2657 40.6598 19.8015 41.1957 18.3899C41.8417 16.7007 42.1671 15.0403 42.1671 13.4468C42.1719 11.7576 41.8321 10.1163 41.167 8.57073Z" fill="#F8F8F8"/>
</svg>
