<svg width="60" height="60" viewBox="0 0 60 60" fill="none" xmlns="http://www.w3.org/2000/svg">
<path d="M30 0C22.0435 0 14.4129 3.16071 8.7868 8.7868C3.16071 14.4129 0 22.0435 0 30C0 37.9565 3.16071 45.5871 8.7868 51.2132C14.4129 56.8393 22.0435 60 30 60C37.9565 60 45.5871 56.8393 51.2132 51.2132C56.8393 45.5871 60 37.9565 60 30C60 22.0435 56.8393 14.4129 51.2132 8.7868C45.5871 3.16071 37.9565 0 30 0ZM17.835 17.1225C20.6963 11.7825 32.91 16.6725 21.405 30C4.545 24.015 12.5925 13.8825 17.835 17.1225ZM42.4312 37.5525C42.7872 37.4687 43.1599 37.4908 43.5035 37.6161C43.8471 37.7415 44.1465 37.9645 44.3649 38.2578C44.5833 38.5512 44.7111 38.902 44.7327 39.267C44.7543 39.6321 44.6686 39.9955 44.4862 40.3125C43.0055 42.8788 40.8748 45.0098 38.3087 46.491C35.7426 47.9722 32.8316 48.7513 29.8688 48.75C26.9059 48.7513 23.9949 47.9722 21.4288 46.491C18.8627 45.0098 16.732 42.8788 15.2512 40.3125C15.0689 39.9955 14.9832 39.6321 15.0048 39.267C15.0264 38.902 15.1542 38.5512 15.3726 38.2578C15.591 37.9645 15.8904 37.7415 16.234 37.6161C16.5776 37.4908 16.9503 37.4687 17.3062 37.5525H17.325L17.3888 37.5713L17.64 37.6275L18.585 37.8337C19.3912 38.0062 20.5163 38.2388 21.7987 38.4675C24.3975 38.9325 27.5063 39.375 29.8688 39.375C32.2313 39.375 35.3438 38.9325 37.9387 38.4675C39.3308 38.217 40.7174 37.937 42.0975 37.6275L42.3488 37.5713L42.4125 37.5563L42.4312 37.5487V37.5525ZM42.1688 17.1225C47.4075 13.8825 55.455 24.015 38.595 30C27.0938 16.6725 39.3112 11.7825 42.1688 17.1225Z" fill="url(#paint0_linear_2_16)"/>
<defs>
<linearGradient id="paint0_linear_2_16" x1="30" y1="0" x2="30" y2="60" gradientUnits="userSpaceOnUse">
<stop stop-color="#FF6D1C"/>
<stop offset="1" stop-color="#FF1C1C"/>
</linearGradient>
</defs>
</svg>