<svg width="17" height="22" viewBox="0 0 17 22" fill="none" xmlns="http://www.w3.org/2000/svg">
<path d="M10.9688 0.5625H0.03125V12.1273L2.40781 15.6922L3.06797 20.3148C3.12273 20.6865 3.30891 21.0262 3.59272 21.2723C3.87654 21.5184 4.23918 21.6547 4.61484 21.6562H4.71875C5.34016 21.6556 5.93594 21.4085 6.37535 20.9691C6.81475 20.5297 7.06188 19.9339 7.0625 19.3125V14.625H13.3125C14.141 14.624 14.9352 14.2944 15.5211 13.7086C16.1069 13.1227 16.4365 12.3285 16.4375 11.5V6.03125C16.4358 4.58136 15.8591 3.19132 14.8339 2.16609C13.8087 1.14086 12.4186 0.564154 10.9688 0.5625Z" fill="#993B3B"/>
</svg>
