<svg width="17" height="22" viewBox="0 0 17 22" fill="none" xmlns="http://www.w3.org/2000/svg">
<path d="M10.9688 21.4375H0.03125V9.87266L2.40781 6.30781L3.06797 1.68516C3.12273 1.3135 3.30891 0.973794 3.59272 0.727677C3.87654 0.48156 4.23918 0.345345 4.61484 0.34375H4.71875C5.34016 0.34437 5.93594 0.5915 6.37535 1.0309C6.81475 1.47031 7.06188 2.06609 7.0625 2.6875V7.375H13.3125C14.141 7.37603 14.9352 7.70561 15.5211 8.29143C16.1069 8.87726 16.4365 9.67152 16.4375 10.5V15.9688C16.4358 17.4186 15.8591 18.8087 14.8339 19.8339C13.8087 20.8591 12.4186 21.4358 10.9688 21.4375Z" fill="#D57777"/>
</svg>
